<svg id="SvgjsSvg1001" width="288" height="288" xmlns="http://www.w3.org/2000/svg" version="1.1" xmlns:xlink="http://www.w3.org/1999/xlink" xmlns:svgjs="http://svgjs.com/svgjs"><defs id="SvgjsDefs1002"></defs><g id="SvgjsG1008"><svg xmlns="http://www.w3.org/2000/svg" viewBox="154.64 314.54 271.07 138.81" width="288" height="288"><path fill="#ffffff" d="M290.18,453.35c74.86,0,135.53-31.07,135.53-69.41c0-38.33-60.68-69.4-135.53-69.4    c-74.86,0-135.54,31.07-135.54,69.4C154.64,422.28,215.32,453.35,290.18,453.35 M315.69,419.29c-2.25,5.25-6.14,16.45-15.09,20.9    c-2.7,1.34-6.04,1.99-9.04,2.08c-0.67,0.02-1.15,0-1.36,0c-25.02,0-48.3-3.47-67.79-9.4c-0.16-0.05-0.62-0.23-0.75-0.28    c-1.79-0.6-2.71-1.44-2.71-2.45c0-0.91,0.47-1.58,1.11-2.21c0.27-0.28,0.69-0.62,1.23-1.1c4.51-3.75,18.06-13.58,43.6-23.34    c8.96-3.42,20.15-7.69,31.89-10.16C303.65,391.87,329.17,387.97,315.69,419.29 M384.17,349.34c0.48-0.84,1.13-1.55,2.29-1.62    c0.64-0.04,1.51,0.11,2.82,0.92c15.92,9.79,25.35,22.03,25.35,35.27c0,23.94-30.77,44.51-74.77,53.51    c-2.82,0.55-4.7,0.54-5.34-0.17c-0.44-0.45-0.55-1.21,0-2.15c0.27-0.49,0.6-0.93,1.17-1.63c23.97-28.25,42.21-69.9,47.4-81.94    C383.47,350.69,383.86,349.88,384.17,349.34 M265.07,348.44c2.26-5.23,6.15-16.42,15.09-20.88c2.71-1.34,6.05-1.99,9.04-2.08    c0.67-0.03,1.15,0,1.34,0c25.03,0,48.31,3.46,67.82,9.41c0.14,0.05,0.6,0.23,0.73,0.27c1.8,0.6,2.73,1.42,2.73,2.46    c0,0.89-0.48,1.56-1.12,2.2c-0.27,0.27-0.69,0.62-1.24,1.08c-4.49,3.77-18.05,13.58-43.58,23.34    c-8.96,3.43-20.16,7.68-31.88,10.17C277.11,375.88,251.59,379.77,265.07,348.44 M240.49,330.43c2.83-0.55,4.7-0.54,5.36,0.18    c0.4,0.45,0.51,1.2-0.01,2.13c-0.31,0.51-0.62,0.95-1.18,1.62c-23.97,28.25-42.22,69.92-47.41,81.96    c-0.38,0.83-0.78,1.65-1.1,2.19c-0.47,0.84-1.12,1.55-2.27,1.62c-0.64,0.03-1.51-0.12-2.83-0.92    c-15.9-9.81-25.36-22.03-25.36-35.29C165.7,359.99,196.48,339.42,240.49,330.43" class="color002860 svgShape"></path></svg></g></svg>