<svg viewBox="-0.5 -0.5 16 16" fill="none" xmlns="http://www.w3.org/2000/svg" id="Cart--Streamline-Iconoir" height="16" width="16"><desc>Cart Streamline Icon: https://streamlinehq.com</desc><path d="M12.627875 14.337187499999999c0.5664375 0 1.025625 -0.4591875 1.025625 -1.0255625s-0.4591875 -1.0255625 -1.025625 -1.0255625 -1.0255625 0.4591875 -1.0255625 1.0255625 0.4591875 1.0255625 1.0255625 1.0255625Z" fill="#002c5f" stroke="#002c5f" stroke-linecap="round" stroke-linejoin="round" stroke-width="1"></path><path d="M5.790687500000001 14.337187499999999c0.566375 0 1.0255625 -0.4591875 1.0255625 -1.0255625s-0.4591875 -1.0255625 -1.0255625 -1.0255625 -1.0255625 0.4591875 -1.0255625 1.0255625 0.459125 1.0255625 1.0255625 1.0255625Z" fill="#002c5f" stroke="#002c5f" stroke-linecap="round" stroke-linejoin="round" stroke-width="1"></path><path d="M2.7139375 2.03025h11.62325l-1.3674374999999999 7.5209375000000005H4.0813749999999995L2.7139375 2.03025Zm0 0C2.6 1.5744375 2.03025 0.6628125 0.6628125 0.6628125" stroke="#002c5f" stroke-linecap="round" stroke-linejoin="round" stroke-width="1"></path><path d="M12.96975 9.551187500000001H2.87175c-1.22 0 -1.8671250000000001 0.534125 -1.8671250000000001 1.3674374999999999s0.6471250000000001 1.3674374999999999 1.8671250000000001 1.3674374999999999h9.756125" stroke="#002c5f" stroke-linecap="round" stroke-linejoin="round" stroke-width="1"></path></svg>